v -0.500000 -0.183748 -9.435001
v 0.500000 -0.183748 -9.435001
v -0.500000 0.682815 -9.934068
v 0.500000 0.682815 -9.934068
v -0.500000 0.183748 -10.800631
v 0.500000 0.183748 -10.800631
v -0.500000 -0.682815 -10.301564
v 0.500000 -0.682815 -10.301564
vt 0.375000 0.000000
vt 0.625000 0.000000
vt 0.375000 0.250000
vt 0.625000 0.250000
vt 0.375000 0.500000
vt 0.625000 0.500000
vt 0.375000 0.750000
vt 0.625000 0.750000
vt 0.375000 1.000000
vt 0.625000 1.000000
vt 0.875000 0.000000
vt 0.875000 0.250000
vt 0.125000 0.000000
vt 0.125000 0.250000
vn 0.000000 0.499067 0.866563
vn 0.000000 0.499067 0.866563
vn 0.000000 0.499067 0.866563
vn 0.000000 0.499067 0.866563
vn 0.000000 0.499067 0.866563
vn 0.000000 0.499067 0.866563
vn 0.000000 0.866563 -0.499067
vn 0.000000 0.866563 -0.499067
vn 0.000000 0.866563 -0.499067
vn 0.000000 0.866563 -0.499067
vn 0.000000 0.866563 -0.499067
vn 0.000000 0.866563 -0.499067
vn 0.000000 -0.866563 0.499067
vn 0.000000 -0.866563 0.499067
vn 0.000000 -0.866563 0.499067
vn 0.000000 -0.866563 0.499067
vn 0.000000 -0.866563 0.499067
vn 0.000000 -0.866563 0.499067
vn 1.000000 0.000000 0.000000
vn 1.000000 0.000000 0.000000
vn 1.000000 0.000000 0.000000
vn 1.000000 0.000000 0.000000
vn 1.000000 0.000000 0.000000
vn 1.000000 0.000000 0.000000
vn -1.000000 0.000000 0.000000
vn -1.000000 0.000000 0.000000
vn -1.000000 0.000000 0.000000
vn -1.000000 0.000000 0.000000
vn -1.000000 0.000000 0.000000
vn -1.000000 0.000000 0.000000
f 1/1/1 2/2/2 3/3/3
f 3/3/4 2/2/5 4/4/6
f 3/3/7 4/4/8 5/5/9
f 5/5/10 4/4/11 6/6/12
f 7/7/13 8/8/14 1/9/15
f 1/9/16 8/8/17 2/10/18
f 2/2/19 8/11/20 4/4/21
f 4/4/22 8/11/23 6/12/24
f 7/13/25 1/1/26 5/14/27
f 5/14/28 1/1/29 3/3/30
v 1.646453 1.729173 -11.347619
v 1.087436 1.625439 -11.198518
v 1.087436 1.289752 -10.716018
v 1.646453 1.186019 -10.566918
v 1.991945 1.457596 -10.957268
v 1.753216 2.307177 -11.345767
v 0.807928 2.131767 -11.093640
v 0.807928 1.564125 -10.277743
v 1.753216 1.388715 -10.025616
v 2.337436 1.847946 -10.685692
v 1.925962 2.461709 -11.885925
v 0.355673 2.170322 -11.467099
v 0.355673 1.227369 -10.111751
v 1.925962 0.935982 -9.692925
v 2.896453 1.698846 -10.789425
v 1.925962 1.979210 -12.221612
v 0.355673 1.687822 -11.802786
v 0.355673 0.744870 -10.447438
v 1.925962 0.453482 -10.028612
v 2.896453 1.216346 -11.125112
vt 0.200000 1.000000
vt 0.000000 1.000000
vt 0.200000 0.800000
vt 0.000000 0.800000
vt 0.400000 1.000000
vt 0.400000 0.800000
vt 0.600000 1.000000
vt 0.600000 0.800000
vt 0.800000 1.000000
vt 0.800000 0.800000
vt 1.000000 1.000000
vt 1.000000 0.800000
vt 0.200000 0.600000
vt 0.000000 0.600000
vt 0.400000 0.600000
vt 0.600000 0.600000
vt 0.800000 0.600000
vt 1.000000 0.600000
vt 0.200000 0.400000
vt 0.000000 0.400000
vt 0.400000 0.400000
vt 0.600000 0.400000
vt 0.800000 0.400000
vt 1.000000 0.400000
vn 0.266405 -0.052292 0.962442
vn 0.266405 -0.052292 0.962442
vn 0.266405 -0.052292 0.962442
vn 0.266405 -0.052290 0.962442
vn 0.266405 -0.052290 0.962442
vn 0.266405 -0.052290 0.962442
vn 0.862104 0.415964 0.289397
vn 0.862104 0.415964 0.289397
vn 0.862104 0.415964 0.289397
vn 0.862104 0.415964 0.289397
vn 0.862104 0.415964 0.289397
vn 0.862103 0.415965 0.289398
vn 0.266405 0.884219 -0.383648
vn 0.266405 0.884219 -0.383648
vn 0.266405 0.884219 -0.383648
vn 0.266405 0.884219 -0.383648
vn 0.266405 0.884219 -0.383648
vn 0.266405 0.884219 -0.383648
vn -0.697456 0.705362 -0.126567
vn -0.697457 0.705362 -0.126567
vn -0.697457 0.705362 -0.126567
vn -0.697457 0.705362 -0.126567
vn -0.697457 0.705362 -0.126567
vn -0.697457 0.705362 -0.126567
vn -0.697457 0.126567 0.705362
vn -0.697457 0.126567 0.705362
vn -0.697457 0.126567 0.705362
vn -0.697457 0.126567 0.705362
vn -0.697457 0.126567 0.705362
vn -0.697457 0.126567 0.705362
vn -0.115167 0.964165 0.239003
vn -0.115167 0.964165 0.239004
vn -0.115167 0.964165 0.239004
vn -0.115167 0.964165 0.239004
vn -0.115167 0.964165 0.239004
vn -0.115167 0.964165 0.239004
vn -0.372689 0.761738 0.529961
vn -0.372689 0.761738 0.529961
vn -0.372689 0.761738 0.529961
vn -0.372689 0.761738 0.529961
vn -0.372689 0.761738 0.529961
vn -0.372689 0.761738 0.529961
vn -0.115167 0.559311 0.820919
vn -0.115167 0.559311 0.820919
vn -0.115167 0.559311 0.820919
vn -0.115167 0.559311 0.820919
vn -0.115167 0.559311 0.820919
vn -0.115167 0.559311 0.820919
vn 0.301511 0.636631 0.709783
vn 0.301511 0.636631 0.709783
vn 0.301511 0.636631 0.709783
vn 0.301511 0.636631 0.709783
vn 0.301511 0.636631 0.709783
vn 0.301511 0.636631 0.709783
vn 0.301511 0.886845 0.350139
vn 0.301511 0.886845 0.350139
vn 0.301511 0.886845 0.350139
vn 0.301511 0.886845 0.350139
vn 0.301511 0.886845 0.350139
vn 0.301511 0.886845 0.350139
vn -0.309017 0.543153 -0.780700
vn -0.309017 0.543153 -0.780700
vn -0.309017 0.543153 -0.780700
vn -0.309017 0.543153 -0.780700
vn -0.309017 0.543153 -0.780700
vn -0.309017 0.543153 -0.780700
vn -1.000000 0.000000 0.000000
vn -1.000000 0.000000 0.000000
vn -1.000000 0.000000 0.000000
vn -1.000000 0.000000 0.000000
vn -1.000000 0.000000 0.000000
vn -1.000000 0.000000 0.000000
vn -0.309017 -0.543153 0.780700
vn -0.309017 -0.543153 0.780700
vn -0.309017 -0.543153 0.780700
vn -0.309017 -0.543153 0.780700
vn -0.309017 -0.543153 0.780700
vn -0.309017 -0.543153 0.780700
vn 0.809017 -0.335688 0.482499
vn 0.809017 -0.335688 0.482499
vn 0.809017 -0.335688 0.482499
vn 0.809017 -0.335688 0.482499
vn 0.809017 -0.335688 0.482499
vn 0.809017 -0.335688 0.482499
vn 0.809017 0.335687 -0.482500
vn 0.809017 0.335688 -0.482499
vn 0.809017 0.335687 -0.482500
vn 0.809017 0.335687 -0.482500
vn 0.809017 0.335688 -0.482499
vn 0.809017 0.335688 -0.482499
f 10/15/31 9/16/32 15/17/33
f 15/17/34 9/16/35 14/18/36
f 11/19/37 10/15/38 16/20/39
f 16/20/40 10/15/41 15/17/42
f 12/21/43 11/19/44 17/22/45
f 17/22/46 11/19/47 16/20/48
f 13/23/49 12/21/50 18/24/51
f 18/24/52 12/21/53 17/22/54
f 9/25/55 13/23/56 14/26/57
f 14/26/58 13/23/59 18/24/60
f 15/17/61 14/18/62 20/27/63
f 20/27/64 14/18/65 19/28/66
f 16/20/67 15/17/68 21/29/69
f 21/29/70 15/17/71 20/27/72
f 17/22/73 16/20/74 22/30/75
f 22/30/76 16/20/77 21/29/78
f 18/24/79 17/22/80 23/31/81
f 23/31/82 17/22/83 22/30/84
f 14/26/85 18/24/86 19/32/87
f 19/32/88 18/24/89 23/31/90
f 20/27/91 19/28/92 25/33/93
f 25/33/94 19/28/95 24/34/96
f 21/29/97 20/27/98 26/35/99
f 26/35/100 20/27/101 25/33/102
f 22/30/103 21/29/104 27/36/105
f 27/36/106 21/29/107 26/35/108
f 23/31/109 22/30/110 28/37/111
f 28/37/112 22/30/113 27/36/114
f 19/32/115 23/31/116 24/38/117
f 24/38/118 23/31/119 28/37/120
v -3.192445 -2.727872 -13.402661
v -3.192445 -2.817533 -12.230515
v -2.235706 -3.422042 -11.912423
v -1.644408 -3.705990 -12.887977
v -1.200874 -1.570487 -13.678463
v -2.157614 -1.021390 -13.272128
v -2.157614 -1.111050 -12.099982
v -1.200874 -1.715560 -11.781890
v -0.609576 -1.999508 -12.757445
v -1.465310 -1.483598 -12.717981
vt 0.425000 0.312500
vt 0.475000 0.312500
vt 0.425000 0.688440
vt 0.475000 0.688440
vt 0.525000 0.312500
vt 0.525000 0.688440
vt 0.575000 0.312500
vt 0.575000 0.688440
vt 0.548284 0.992353
vt 0.373591 0.935591
vt 0.500000 0.837500
vt 0.373591 0.751909
vt 0.548284 0.695147
vt 0.656250 0.843750
vn -0.855734 0.515908 0.039463
vn -0.855734 0.515908 0.039463
vn -0.855734 0.515908 0.039463
vn -0.855734 0.515909 0.039463
vn -0.855734 0.515909 0.039463
vn -0.855734 0.515909 0.039463
vn -0.264436 0.086888 0.960481
vn -0.264436 0.086888 0.960481
vn -0.264436 0.086888 0.960481
vn -0.264436 0.086888 0.960481
vn -0.264436 0.086888 0.960481
vn -0.264436 0.086888 0.960481
vn 0.692303 -0.462209 0.554147
vn 0.692303 -0.462209 0.554147
vn 0.692303 -0.462209 0.554147
vn 0.692303 -0.462209 0.554147
vn 0.692303 -0.462209 0.554147
vn 0.692303 -0.462209 0.554147
vn 0.517416 0.853241 0.065266
vn 0.517416 0.853241 0.065266
vn 0.517416 0.853241 0.065266
vn 0.517416 0.853241 0.065266
vn 0.517416 0.853241 0.065266
vn 0.517416 0.853241 0.065266
vn 0.517416 0.853241 0.065266
vn 0.517416 0.853241 0.065266
vn 0.517416 0.853241 0.065266
vn 0.517416 0.853241 0.065266
vn 0.517416 0.853241 0.065266
vn 0.517416 0.853241 0.065266
vn 0.517416 0.853241 0.065266
vn 0.517416 0.853241 0.065266
vn 0.517416 0.853241 0.065266
f 29/39/121 30/40/122 34/41/123
f 34/41/124 30/40/125 35/42/126
f 30/40/127 31/43/128 35/42/129
f 35/42/130 31/43/131 36/44/132
f 31/43/133 32/45/134 36/44/135
f 36/44/136 32/45/137 37/46/138
f 33/47/139 34/48/140 38/49/141
f 34/48/142 35/50/143 38/49/144
f 35/50/145 36/51/146 38/49/147
f 36/51/148 37/52/149 38/49/150
f 37/52/151 33/47/152 38/49/153
