v -1.233899 3.499835 -12.393298
v -2.190639 3.772874 -11.767147
v -2.190639 3.110198 -10.796155
v -1.233899 2.427602 -10.822199
v -0.642601 2.668411 -11.809288
v -1.498335 3.095784 -11.517618
vt 0.548284 0.695147
vt 0.373591 0.751909
vt 0.373591 0.935591
vt 0.548284 0.992353
vt 0.656250 0.843750
vt 0.500000 0.837500
vn 0.517416 0.706815 0.482382
vn 0.517416 0.706815 0.482382
vn 0.517416 0.706815 0.482382
vn 0.517416 0.706815 0.482382
vn 0.517416 0.706815 0.482382
vn 0.517416 0.706815 0.482382
f 1/4/1 2/3/2 6/6/3
f 2/3/2 3/2/4 6/6/3
f 3/2/4 4/1/5 6/6/3
f 4/1/5 5/5/6 6/6/3
f 5/5/6 1/4/1 6/6/3
v -2.097423 0.148743 -10.037528
v 2.097423 0.148743 -10.037528
v -2.097423 2.962472 -13.148743
v 2.097423 2.962472 -13.148743
vt 0.375000 0.000000
vt 0.625000 0.000000
vt 0.375000 0.250000
vt 0.625000 0.250000
vn 0.000000 0.741676 0.670759
vn 0.000000 0.741676 0.670759
vn 0.000000 0.741676 0.670759
vn 0.000000 0.741676 0.670759
f 7/7/7 8/8/8 9/9/9
f 9/9/9 8/8/8 10/10/10
