# Blender v2.80 (sub 75) OBJ File: ''
# www.blender.org
mtllib hexa.mtl
o Torus
v 1.500000 0.000000 0.000000
v 1.250000 0.433013 0.000000
v 0.750000 0.433013 0.000000
v 0.500000 0.000000 0.000000
v 0.750000 -0.433013 0.000000
v 1.250000 -0.433013 0.000000
v 0.750000 0.000000 -1.299038
v 0.625000 0.433013 -1.082532
v 0.375000 0.433013 -0.649519
v 0.250000 0.000000 -0.433013
v 0.375000 -0.433013 -0.649519
v 0.625000 -0.433013 -1.082532
v -0.750000 0.000000 -1.299038
v -0.625000 0.433013 -1.082532
v -0.375000 0.433013 -0.649519
v -0.250000 0.000000 -0.433013
v -0.375000 -0.433013 -0.649519
v -0.625000 -0.433013 -1.082532
v -1.500000 0.000000 -0.000000
v -1.250000 0.433013 -0.000000
v -0.750000 0.433013 -0.000000
v -0.500000 0.000000 -0.000000
v -0.750000 -0.433013 -0.000000
v -1.250000 -0.433013 -0.000000
v -0.750000 0.000000 1.299038
v -0.625000 0.433013 1.082532
v -0.375000 0.433013 0.649519
v -0.250000 0.000000 0.433013
v -0.375000 -0.433013 0.649519
v -0.625000 -0.433013 1.082532
v 0.750000 0.000000 1.299038
v 0.625000 0.433013 1.082532
v 0.375000 0.433013 0.649519
v 0.250000 0.000000 0.433013
v 0.375000 -0.433013 0.649519
v 0.625000 -0.433013 1.082532
vt 0.666667 0.500000
vt 0.500000 0.666667
vt 0.500000 0.500000
vt 0.666667 0.666667
vt 0.500000 0.833333
vt 0.666667 0.833333
vt 0.500000 1.000000
vt 0.666667 -0.000000
vt 0.500000 0.166667
vt 0.500000 -0.000000
vt 0.666667 0.166667
vt 0.500000 0.333333
vt 0.666667 0.333333
vt 0.833333 0.500000
vt 0.833333 0.666667
vt 0.833333 0.833333
vt 0.666667 1.000000
vt 0.833333 -0.000000
vt 0.833333 0.166667
vt 0.833333 0.333333
vt 1.000000 0.666667
vt 1.000000 0.833333
vt 0.833333 1.000000
vt 1.000000 -0.000000
vt 1.000000 0.166667
vt 1.000000 0.333333
vt 0.166667 0.500000
vt -0.000000 0.666667
vt -0.000000 0.500000
vt 0.166667 0.666667
vt -0.000000 0.833333
vt 0.166667 0.833333
vt -0.000000 1.000000
vt 0.166667 -0.000000
vt -0.000000 0.166667
vt -0.000000 -0.000000
vt 0.166667 0.166667
vt -0.000000 0.333333
vt 0.166667 0.333333
vt 0.333333 0.500000
vt 0.333333 0.833333
vt 0.166667 1.000000
vt 0.333333 -0.000000
vt 0.333333 0.333333
vt 0.333333 0.666667
vt 0.333333 1.000000
vt 0.333333 0.166667
vt 1.000000 0.500000
vt 1.000000 1.000000
vn 0.7746 0.4472 -0.4472
vn 0.0000 1.0000 -0.0000
vn -0.7746 0.4472 0.4472
vn -0.7746 -0.4472 0.4472
vn 0.0000 -1.0000 -0.0000
vn 0.7746 -0.4472 -0.4472
vn 0.0000 0.4472 -0.8944
vn -0.0000 0.4472 0.8944
vn 0.0000 -0.4472 0.8944
vn 0.0000 -0.4472 -0.8944
vn -0.7746 0.4472 -0.4472
vn 0.7746 0.4472 0.4472
vn 0.7746 -0.4472 0.4472
vn -0.7746 -0.4472 -0.4472
usemtl None
s off
f 7/1/1 2/2/1 1/3/1
f 8/4/2 3/5/2 2/2/2
f 9/6/3 4/7/3 3/5/3
f 10/8/4 5/9/4 4/10/4
f 11/11/5 6/12/5 5/9/5
f 12/13/6 1/3/6 6/12/6
f 13/14/7 8/4/7 7/1/7
f 14/15/2 9/6/2 8/4/2
f 15/16/8 10/17/8 9/6/8
f 16/18/9 11/11/9 10/8/9
f 17/19/5 12/13/5 11/11/5
f 18/20/10 7/1/10 12/13/10
f 13/14/11 20/21/11 14/15/11
f 20/21/2 15/16/2 14/15/2
f 21/22/12 16/23/12 15/16/12
f 22/24/13 17/19/13 16/18/13
f 23/25/5 18/20/5 17/19/5
f 24/26/14 13/14/14 18/20/14
f 25/27/3 20/28/3 19/29/3
f 26/30/2 21/31/2 20/28/2
f 27/32/1 22/33/1 21/31/1
f 28/34/6 23/35/6 22/36/6
f 29/37/5 24/38/5 23/35/5
f 30/39/4 19/29/4 24/38/4
f 31/40/8 26/30/8 25/27/8
f 26/30/2 33/41/2 27/32/2
f 33/41/7 28/42/7 27/32/7
f 34/43/10 29/37/10 28/34/10
f 29/37/5 36/44/5 30/39/5
f 36/44/9 25/27/9 30/39/9
f 31/40/12 2/2/12 32/45/12
f 2/2/2 33/41/2 32/45/2
f 3/5/11 34/46/11 33/41/11
f 4/10/14 35/47/14 34/43/14
f 5/9/5 36/44/5 35/47/5
f 6/12/13 31/40/13 36/44/13
f 7/1/1 8/4/1 2/2/1
f 8/4/2 9/6/2 3/5/2
f 9/6/3 10/17/3 4/7/3
f 10/8/4 11/11/4 5/9/4
f 11/11/5 12/13/5 6/12/5
f 12/13/6 7/1/6 1/3/6
f 13/14/7 14/15/7 8/4/7
f 14/15/2 15/16/2 9/6/2
f 15/16/8 16/23/8 10/17/8
f 16/18/9 17/19/9 11/11/9
f 17/19/5 18/20/5 12/13/5
f 18/20/10 13/14/10 7/1/10
f 13/14/11 19/48/11 20/21/11
f 20/21/2 21/22/2 15/16/2
f 21/22/12 22/49/12 16/23/12
f 22/24/13 23/25/13 17/19/13
f 23/25/5 24/26/5 18/20/5
f 24/26/14 19/48/14 13/14/14
f 25/27/3 26/30/3 20/28/3
f 26/30/2 27/32/2 21/31/2
f 27/32/1 28/42/1 22/33/1
f 28/34/6 29/37/6 23/35/6
f 29/37/5 30/39/5 24/38/5
f 30/39/4 25/27/4 19/29/4
f 31/40/8 32/45/8 26/30/8
f 26/30/2 32/45/2 33/41/2
f 33/41/7 34/46/7 28/42/7
f 34/43/10 35/47/10 29/37/10
f 29/37/5 35/47/5 36/44/5
f 36/44/9 31/40/9 25/27/9
f 31/40/12 1/3/12 2/2/12
f 2/2/2 3/5/2 33/41/2
f 3/5/11 4/7/11 34/46/11
f 4/10/14 5/9/14 35/47/14
f 5/9/5 6/12/5 36/44/5
f 6/12/13 1/3/13 31/40/13
