# Blender v2.79 (sub 0) OBJ File: ''
# www.blender.org
mtllib trunc.mtl
o Cube_Cube.001
v -1.000000 -1.000000 1.000000
v -1.000000 1.000000 1.000000
v -1.000000 -1.000000 -1.000000
v -1.000000 1.000000 -1.000000
v 1.000000 -1.000000 1.000000
v 1.000000 1.000000 1.000000
v 1.000000 -1.000000 -1.000000
v 0.000000 1.000000 -1.000000
v 1.000000 0.000000 -1.000000
v 1.000000 1.000000 0.000000
vn -1.0000 0.0000 0.0000
vn 0.0000 -1.0000 0.0000
vn 0.0000 0.0000 1.0000
vn 0.0000 1.0000 0.0000
vn 0.5774 0.5774 -0.5774
vn 1.0000 0.0000 0.0000
vn 0.0000 0.0000 -1.0000
usemtl None
s off
f 2//1 3//1 1//1
f 7//2 5//2 1//2
f 2//1 4//1 3//1
f 6//3 1//3 5//3
f 7//2 1//2 3//2
f 2//4 6//4 10//4
f 9//5 8//5 10//5
f 10//6 6//6 5//6
f 9//7 3//7 8//7
f 6//3 2//3 1//3
f 10//4 8//4 2//4
f 8//4 4//4 2//4
f 5//6 7//6 9//6
f 9//6 10//6 5//6
f 7//7 3//7 9//7
f 3//7 4//7 8//7
